<?xml version="1.0" standalone="no"?><!DOCTYPE svg PUBLIC "-//W3C//DTD SVG 1.1//EN" "http://www.w3.org/Graphics/SVG/1.1/DTD/svg11.dtd"><svg t="1657248067111" class="icon" viewBox="0 0 1024 1024" version="1.1" xmlns="http://www.w3.org/2000/svg" p-id="1603" xmlns:xlink="http://www.w3.org/1999/xlink" width="200" height="200"><defs><style type="text/css">@font-face { font-family: feedback-iconfont; src: url("//at.alicdn.com/t/font_1031158_u69w8yhxdu.woff2?t=1630033759944") format("woff2"), url("//at.alicdn.com/t/font_1031158_u69w8yhxdu.woff?t=1630033759944") format("woff"), url("//at.alicdn.com/t/font_1031158_u69w8yhxdu.ttf?t=1630033759944") format("truetype"); }
</style></defs><path d="M960 462.208H64V183.488C64 117.76 117.76 64 183.488 64h135.36c16 0 29.888 3.968 43.84 11.968l103.488 67.648h374.4c65.664 0 119.424 53.76 119.424 119.488v199.104z" fill="#3A69DD" p-id="1604"></path><path d="M820.608 392.512H203.392V261.12c0-25.856 21.888-47.808 47.744-47.808h521.728c25.856 0 47.744 21.952 47.744 47.808v131.392z" fill="#D9E3FF" p-id="1605"></path><path d="M860.416 412.416H163.584V308.928a55.68 55.68 0 0 1 55.68-55.744h587.392a55.68 55.68 0 0 1 55.808 55.68v103.552h-2.048z" fill="#FFFFFF" p-id="1606"></path><path d="M800.704 960H223.36C108.672 952.512 64 952.512 64 800.704V332.8s332.544 39.808 451.968 39.808C715.072 372.608 960 332.8 960 332.8v467.904C960 960 929.984 960 800.704 960z" fill="#5F7CF9" p-id="1607"></path><path d="M627.776 619.776H380.928c-50.816 0-62.72-21.632-62.72-48s11.904-48 62.72-48h246.848c50.752 0 59.968 21.632 59.968 48s-9.216 48-59.968 48z" fill="#F9D523" p-id="1608"></path></svg>